<?xml version="1.0" encoding="utf-8"?><svg viewBox="0 0 113 30" xmlns="http://www.w3.org/2000/svg" xmlns:xlink="http://www.w3.org/1999/xlink"><style>:root>svg{display:none}:root>svg:target{display:block}</style><svg viewBox="0 0 27 30" id="favicon" xmlns="http://www.w3.org/2000/svg"><path d="M13.095 4.46c.888-.026 1.769.03 2.638.223.134.03.181.06.136.217-.175.62-.108 1.247-.026 1.874.12.91.479 1.75.75 2.617.241.768.445 1.543.444 2.359 0 .991-.355 1.823-1.087 2.49-.43.392-.854.787-1.228 1.233-.347.414-.653.854-.747 1.4-.066.384-.024.772 0 1.157.052.847.218 1.683.226 2.53.01 1.158-.195 2.246-.997 3.148-.11.124-.179.135-.292 0-.529-.618-.802-1.342-.904-2.138-.117-.918-.021-1.829.094-2.74.067-.52.1-1.042.115-1.565.014-.488-.147-.93-.417-1.335-.367-.549-.823-1.018-1.31-1.456-.48-.428-.91-.888-1.136-1.507-.254-.694-.247-1.405-.132-2.123.157-.977.527-1.893.826-2.829.276-.862.422-1.742.356-2.65a1.812 1.812 0 00-.09-.497c-.048-.129 0-.163.107-.188a9.959 9.959 0 011.721-.225c.316-.006.635.005.953.005zM2.774 12.854c-.004-.51.008-1.014-.009-1.52a16.988 16.988 0 00-1.067-5.422C1.3 4.851.963 3.767.756 2.65.654 2.095.586 1.538.696.977.824.329 1.268.028 1.924.129c.358.057.706.164 1.033.32 1.626.768 3.196 1.637 4.613 2.756.476.376.918.787 1.292 1.27.214.27.344.597.372.94.11 1.314-.35 2.373-1.417 3.152-.741.542-1.542.992-2.313 1.485-.274.175-.545.353-.809.543-.826.59-1.554 1.269-1.921 2.26zM23.415 12.855c-.385-1.031-1.153-1.72-2.011-2.328-.945-.663-1.962-1.215-2.91-1.872-.572-.395-1.027-.888-1.299-1.536-.272-.647-.316-1.328-.187-2.018.06-.327.271-.572.474-.813.558-.667 1.238-1.194 1.947-1.685A25.05 25.05 0 0123.353.398c.273-.124.562-.21.858-.257.777-.126 1.25.245 1.318 1.039.062.738-.071 1.453-.242 2.164-.291 1.208-.734 2.367-1.122 3.544-.404 1.225-.61 2.49-.701 3.775a23.304 23.304 0 00-.05 2.192z"/><path d="M12.78 29.692c-.13.013-.244-.043-.362-.071-.911-.22-1.604-.737-2.114-1.523-.542-.836-.87-1.762-1.143-2.71-.247-.856-.478-1.717-.786-2.552a7.36 7.36 0 00-1.694-2.682c-.505-.508-1.009-1.02-1.446-1.591-.478-.622-.837-1.297-.922-2.093a3.53 3.53 0 01.156-1.44 5.553 5.553 0 011.076-1.97c.67-.787 1.511-.928 2.408-.41.322.19.621.418.89.678.656.617 1.231 1.308 1.8 2.004.466.572.519 1.237.376 1.932-.172.843-.482 1.648-.711 2.476-.403 1.45-.615 2.926-.579 4.432.032 1.329.312 2.596 1.055 3.726a4.91 4.91 0 001.894 1.711c.036.019.085.023.101.082zm-2.55-13.413c-.046-.033-.074-.056-.105-.075a4.402 4.402 0 01-1.407-1.319 4.208 4.208 0 00-.336-.424c-.568-.656-1.373-.766-2.283-.429.57.46 1.065.986 1.525 1.543a2.41 2.41 0 001.589.89c.349.047.691.014 1.016-.186zM13.356 29.692c1.651-.83 2.536-2.195 2.919-3.927.23-1.04.214-2.091.133-3.146-.122-1.586-.572-3.094-1.045-4.598-.144-.458-.259-.923-.26-1.41 0-.433.104-.838.37-1.175.673-.852 1.364-1.69 2.198-2.395.215-.181.449-.338.698-.467.723-.374 1.5-.32 2.078.288.876.918 1.418 2.003 1.44 3.295.016.915-.386 1.686-.926 2.394-.338.45-.713.87-1.124 1.254-1.232 1.14-1.957 2.56-2.402 4.152-.255.904-.488 1.817-.823 2.697-.272.716-.628 1.385-1.13 1.968-.536.62-1.247.91-2.025 1.075a.488.488 0 01-.1-.005zm2.612-13.418c.114.09.251.147.395.165.793.133 1.479-.108 2.02-.678.558-.587 1.064-1.22 1.709-1.733-.124-.07-.247-.085-.366-.113-.821-.19-1.517-.004-2.043.687-.117.154-.238.304-.349.462-.215.306-.48.576-.781.798-.19.141-.386.273-.585.413v-.001z"/><path d="M6.93 21.295c-.974-.982-2.141-1.687-3.343-2.34C1.829 18.001.9 16.507.695 14.537c-.132-1.265.05-2.497.354-3.72.156-.633.26-1.27.18-1.926a1.885 1.885 0 00-.2-.65c.272.103.453.277.596.485.306.44.449.943.535 1.462.213 1.274.165 2.545-.057 3.814-.126.723-.201 1.446-.006 2.169.226.834.745 1.456 1.428 1.954.497.363 1.045.655 1.522 1.052.712.59 1.343 1.27 1.879 2.023a.425.425 0 01.033.066l-.029.029zM19.23 21.267c.465-.716 1.046-1.33 1.683-1.894.43-.382.908-.7 1.395-1.005.727-.455 1.335-1.024 1.664-1.842.26-.65.283-1.323.187-2.006-.108-.784-.257-1.562-.263-2.357-.008-.994.026-1.985.395-2.927.164-.42.4-.788.846-.994-.39.97-.159 1.911.066 2.846.248 1.04.388 2.085.316 3.151-.136 2.07-1.03 3.682-2.887 4.699-1.024.56-2.027 1.153-2.912 1.923-.16.14-.31.29-.464.435l-.027-.029zM13.07 28.544c-.353.003-.696-.038-1.021-.184-.368-.166-.623-.436-.729-.826-.189-.703-.09-1.343.442-1.882.355-.359.778-.62 1.21-.868a.171.171 0 01.176 0c.51.248.979.55 1.335.999.47.595.5 1.262.253 1.943-.178.49-.609.677-1.09.77a3.09 3.09 0 01-.577.048z"/><path d="M9.457 7.42a3.169 3.169 0 01-.42 1.668c-.583 1.025-.686 2.09-.36 3.237-.197-.086-.368-.165-.543-.236-.51-.209-1.039-.32-1.589-.233-.703.109-1.217.515-1.62 1.078-.542.755-.813 1.62-1.003 2.515-.067.316-.111.636-.17.984-.304-1.273-.167-2.468.418-3.602.781-1.515 1.98-2.62 3.487-3.38.851-.43 1.446-1.04 1.744-1.943a.685.685 0 01.056-.088zM17.515 12.335a6.28 6.28 0 00.161-.884c.071-.726-.036-1.416-.384-2.063-.267-.497-.479-1.014-.547-1.581-.014-.114-.013-.23-.019-.353.059.023.062.063.073.096.295.859.856 1.457 1.672 1.869 1.613.813 2.889 1.992 3.661 3.654.493 1.058.588 2.222.298 3.367-.069-.473-.13-.903-.238-1.326-.214-.839-.497-1.648-1.048-2.334-.686-.856-1.567-1.123-2.62-.85a4.999 4.999 0 00-1.009.405zM7.469 23.616c-.93-1.019-2.064-1.749-3.322-2.267-1.958-.804-3.123-2.263-3.704-4.247-.249-.85-.41-2.041-.365-2.635.16 1.513.749 2.847 1.717 4.01.565.68 1.229 1.252 2.03 1.627 1.293.602 2.287 1.539 3.124 2.665.16.215.309.439.46.66.037.054.094.105.06.187zM26.105 14.54c-.076 2.063-.538 3.986-2.047 5.516-.523.532-1.152.904-1.833 1.202-1.283.56-2.478 1.258-3.446 2.294a.1.1 0 01-.11.032c.195-.28.377-.556.574-.82.833-1.122 1.816-2.068 3.11-2.652a4.65 4.65 0 00.993-.63c1.573-1.267 2.489-2.904 2.747-4.91a.154.154 0 01.012-.032zM6.959 21.268c.028.02.05.042.031.08l-.06-.053.029-.027zM19.258 21.295l-.061.052c-.02-.039.002-.06.031-.08l.03.028zM19.197 21.347c-.005.03-.022.04-.05.03a.024.024 0 01-.01-.014c.016-.019.035-.033.06-.015zM6.991 21.348l.027.004-.01.023-.016-.028-.001.001z"/><defs><linearGradient id="apaint0_linear_59_3086" x1="13.091" y1="4.453" x2="13.091" y2="23.805" gradientUnits="userSpaceOnUse"><stop stop-color="#ECA72F"/><stop offset="1" stop-color="#EDCA4F"/></linearGradient><linearGradient id="apaint1_linear_59_3086" x1="4.945" y1=".11" x2="4.945" y2="12.854" gradientUnits="userSpaceOnUse"><stop stop-color="#ECA72F"/><stop offset="1" stop-color="#EDCA4F"/></linearGradient><linearGradient id="apaint2_linear_59_3086" x1="21.241" y1=".117" x2="21.241" y2="12.855" gradientUnits="userSpaceOnUse"><stop stop-color="#ECA72F"/><stop offset="1" stop-color="#EDCA4F"/></linearGradient><linearGradient id="apaint3_linear_59_3086" x1="8.538" y1="12.344" x2="8.538" y2="29.694" gradientUnits="userSpaceOnUse"><stop stop-color="#ECA72F"/><stop offset="1" stop-color="#EDCA4F"/></linearGradient><linearGradient id="apaint4_linear_59_3086" x1="17.622" y1="12.339" x2="17.622" y2="29.698" gradientUnits="userSpaceOnUse"><stop stop-color="#ECA72F"/><stop offset="1" stop-color="#EDCA4F"/></linearGradient><linearGradient id="apaint5_linear_59_3086" x1="3.805" y1="8.241" x2="3.805" y2="21.295" gradientUnits="userSpaceOnUse"><stop stop-color="#ECA72F"/><stop offset="1" stop-color="#EDCA4F"/></linearGradient><linearGradient id="apaint6_linear_59_3086" x1="22.384" y1="8.242" x2="22.384" y2="21.296" gradientUnits="userSpaceOnUse"><stop stop-color="#ECA72F"/><stop offset="1" stop-color="#EDCA4F"/></linearGradient><linearGradient id="apaint7_linear_59_3086" x1="13.06" y1="24.76" x2="13.06" y2="28.545" gradientUnits="userSpaceOnUse"><stop stop-color="#ECA72F"/><stop offset="1" stop-color="#EDCA4F"/></linearGradient><linearGradient id="apaint8_linear_59_3086" x1="6.527" y1="7.42" x2="6.527" y2="16.433" gradientUnits="userSpaceOnUse"><stop stop-color="#ECA72F"/><stop offset="1" stop-color="#EDCA4F"/></linearGradient><linearGradient id="apaint9_linear_59_3086" x1="19.66" y1="7.454" x2="19.66" y2="16.441" gradientUnits="userSpaceOnUse"><stop stop-color="#ECA72F"/><stop offset="1" stop-color="#EDCA4F"/></linearGradient><linearGradient id="apaint10_linear_59_3086" x1="3.775" y1="14.467" x2="3.775" y2="23.616" gradientUnits="userSpaceOnUse"><stop stop-color="#ECA72F"/><stop offset="1" stop-color="#EDCA4F"/></linearGradient><linearGradient id="apaint11_linear_59_3086" x1="22.387" y1="14.54" x2="22.387" y2="23.59" gradientUnits="userSpaceOnUse"><stop stop-color="#ECA72F"/><stop offset="1" stop-color="#EDCA4F"/></linearGradient><linearGradient id="apaint12_linear_59_3086" x1="6.963" y1="21.268" x2="6.963" y2="21.348" gradientUnits="userSpaceOnUse"><stop stop-color="#ECA72F"/><stop offset="1" stop-color="#EDCA4F"/></linearGradient><linearGradient id="apaint13_linear_59_3086" x1="19.223" y1="21.267" x2="19.223" y2="21.347" gradientUnits="userSpaceOnUse"><stop stop-color="#ECA72F"/><stop offset="1" stop-color="#EDCA4F"/></linearGradient><linearGradient id="apaint14_linear_59_3086" x1="19.167" y1="21.34" x2="19.167" y2="21.381" gradientUnits="userSpaceOnUse"><stop stop-color="#ECA72F"/><stop offset="1" stop-color="#EDCA4F"/></linearGradient><linearGradient id="apaint15_linear_59_3086" x1="7.005" y1="21.347" x2="7.005" y2="21.375" gradientUnits="userSpaceOnUse"><stop stop-color="#ECA72F"/><stop offset="1" stop-color="#EDCA4F"/></linearGradient></defs></svg><svg viewBox="0 0 113 30" id="logo" xmlns="http://www.w3.org/2000/svg"><path d="M13.024 4.556c.888-.026 1.769.03 2.639.223.133.03.18.06.135.216-.175.62-.108 1.248-.025 1.874.12.91.478 1.751.75 2.618.24.768.444 1.543.443 2.359 0 .99-.355 1.823-1.087 2.49-.43.391-.854.787-1.227 1.233-.348.414-.654.853-.748 1.4-.066.384-.024.772 0 1.157.052.846.219 1.682.226 2.53.011 1.157-.195 2.246-.997 3.148-.11.123-.178.135-.292 0-.528-.618-.801-1.342-.903-2.138-.118-.918-.022-1.83.093-2.74.067-.52.1-1.042.115-1.566.014-.488-.147-.93-.417-1.334-.367-.55-.823-1.019-1.31-1.456-.48-.429-.91-.889-1.136-1.507-.254-.695-.246-1.405-.132-2.123.157-.977.527-1.893.826-2.829.276-.862.422-1.742.356-2.65a1.812 1.812 0 00-.09-.498c-.048-.128 0-.162.107-.187a9.958 9.958 0 011.721-.226c.316-.006.635.006.953.006zM2.703 12.95c-.004-.51.009-1.014-.009-1.52a16.988 16.988 0 00-1.067-5.422C1.23 4.947.892 3.863.685 2.744c-.101-.553-.17-1.11-.06-1.671.129-.648.572-.949 1.229-.848.357.057.705.164 1.032.32 1.627.768 3.196 1.637 4.613 2.756.477.376.919.787 1.292 1.27.214.27.344.597.372.94.11 1.314-.35 2.373-1.417 3.152-.74.542-1.541.991-2.313 1.485-.273.175-.545.353-.808.542-.827.591-1.555 1.27-1.922 2.26zM23.344 12.95c-.385-1.03-1.153-1.72-2.011-2.327-.944-.664-1.961-1.215-2.91-1.872-.572-.396-1.027-.888-1.299-1.536-.272-.647-.316-1.328-.187-2.018.06-.327.271-.572.474-.813.558-.667 1.239-1.194 1.947-1.685A25.048 25.048 0 0123.282.494c.273-.124.562-.21.858-.258.777-.125 1.25.245 1.318 1.04.062.737-.071 1.453-.242 2.164-.29 1.207-.734 2.367-1.122 3.543-.404 1.226-.61 2.49-.7 3.776a23.268 23.268 0 00-.05 2.191z"/><path d="M12.708 29.787c-.13.014-.243-.042-.361-.07-.911-.221-1.604-.737-2.114-1.523-.542-.836-.869-1.762-1.143-2.71-.246-.856-.478-1.717-.786-2.552A7.359 7.359 0 006.61 20.25c-.505-.509-1.009-1.02-1.445-1.591-.479-.622-.838-1.297-.923-2.093a3.53 3.53 0 01.156-1.44 5.552 5.552 0 011.076-1.97c.67-.788 1.511-.928 2.408-.41.322.19.621.418.89.678.657.617 1.231 1.308 1.8 2.004.467.572.519 1.237.377 1.931-.173.844-.482 1.649-.712 2.476-.403 1.451-.615 2.927-.578 4.433.031 1.329.311 2.596 1.055 3.726a4.91 4.91 0 001.893 1.711c.036.019.085.023.101.082zm-2.55-13.412c-.045-.033-.073-.056-.104-.075a4.402 4.402 0 01-1.407-1.319 4.208 4.208 0 00-.336-.425c-.568-.655-1.373-.765-2.283-.428.571.46 1.065.986 1.525 1.543a2.41 2.41 0 001.59.89c.348.047.69.014 1.015-.186zM13.285 29.788c1.651-.83 2.536-2.195 2.919-3.927.23-1.04.214-2.091.133-3.146-.122-1.586-.572-3.094-1.045-4.598-.144-.458-.259-.923-.26-1.41 0-.433.104-.838.37-1.175.673-.852 1.364-1.69 2.199-2.395.214-.181.448-.338.697-.467.723-.374 1.5-.32 2.078.288.877.918 1.418 2.003 1.44 3.295.016.915-.386 1.686-.926 2.394-.338.45-.713.87-1.123 1.254-1.233 1.14-1.958 2.56-2.403 4.152-.255.904-.488 1.817-.823 2.697-.271.716-.628 1.385-1.13 1.968-.536.62-1.247.91-2.025 1.075a.495.495 0 01-.1-.005zm2.612-13.418c.115.09.251.147.396.165.792.133 1.478-.108 2.02-.678.557-.587 1.063-1.22 1.708-1.733-.124-.07-.247-.085-.366-.113-.821-.19-1.517-.004-2.043.687-.117.153-.237.304-.348.462-.216.306-.48.576-.782.798-.19.141-.386.273-.585.413v-.001z"/><path d="M6.86 21.39c-.974-.981-2.142-1.686-3.344-2.339C1.758 18.097.83 16.603.624 14.633c-.132-1.265.05-2.497.354-3.72.156-.633.26-1.27.18-1.926a1.885 1.885 0 00-.199-.65c.271.103.452.277.596.485.305.44.448.943.535 1.462.212 1.274.164 2.545-.057 3.814-.126.723-.202 1.446-.007 2.169.226.834.745 1.456 1.428 1.954.497.363 1.045.655 1.522 1.052a10.62 10.62 0 011.88 2.023.426.426 0 01.032.066l-.029.029zM19.158 21.363c.466-.716 1.048-1.33 1.684-1.894.43-.382.908-.7 1.395-1.005.727-.455 1.336-1.024 1.664-1.842.26-.65.283-1.324.188-2.006-.11-.784-.258-1.562-.264-2.357-.008-.994.026-1.985.395-2.927.164-.42.4-.788.846-.994-.39.969-.158 1.911.066 2.846.248 1.04.388 2.085.316 3.151-.136 2.069-1.03 3.682-2.887 4.699-1.024.56-2.027 1.152-2.912 1.923-.16.139-.31.29-.464.435l-.027-.029zM12.998 28.64c-.352.003-.695-.039-1.02-.184-.368-.166-.623-.436-.729-.826-.189-.703-.09-1.343.442-1.882.355-.359.778-.62 1.21-.868a.171.171 0 01.177 0c.508.248.978.55 1.334.999.47.595.5 1.262.253 1.943-.177.49-.609.677-1.09.77a3.09 3.09 0 01-.577.048z"/><path d="M9.387 7.516a3.169 3.169 0 01-.42 1.668c-.583 1.025-.686 2.09-.362 3.236-.196-.085-.367-.164-.542-.236-.51-.208-1.039-.318-1.589-.233-.703.11-1.217.515-1.62 1.078-.542.756-.813 1.62-1.002 2.516-.067.316-.112.636-.172.984-.303-1.273-.165-2.469.42-3.603.78-1.514 1.98-2.62 3.486-3.38.851-.428 1.446-1.039 1.745-1.942a.686.686 0 01.056-.088zM17.445 12.43a6.28 6.28 0 00.16-.883c.071-.727-.036-1.416-.384-2.063-.267-.497-.479-1.014-.547-1.581-.014-.114-.013-.23-.019-.354.06.024.062.064.073.097.295.859.856 1.457 1.672 1.868 1.614.814 2.89 1.992 3.662 3.655.492 1.058.587 2.222.297 3.367-.069-.474-.13-.903-.238-1.326-.214-.84-.497-1.648-1.047-2.334-.687-.856-1.567-1.123-2.62-.85a5.006 5.006 0 00-1.01.404zM7.398 23.712c-.93-1.019-2.064-1.749-3.321-2.267-1.959-.803-3.124-2.263-3.705-4.247-.248-.85-.41-2.041-.364-2.635.16 1.513.748 2.847 1.716 4.01.565.68 1.229 1.252 2.03 1.627 1.293.602 2.287 1.539 3.124 2.665.16.215.309.439.46.66.037.054.094.105.06.187zM26.034 14.636c-.075 2.063-.538 3.986-2.046 5.516-.523.531-1.153.904-1.834 1.201-1.282.562-2.478 1.258-3.446 2.294a.098.098 0 01-.11.033c.195-.28.377-.556.574-.82.834-1.122 1.816-2.068 3.11-2.653a4.65 4.65 0 00.994-.629c1.572-1.268 2.488-2.904 2.747-4.91a.155.155 0 01.011-.032zM6.888 21.363c.029.02.05.043.031.08l-.06-.052.029-.028zM19.187 21.39l-.061.053c-.02-.039.002-.06.031-.08l.03.028zM19.126 21.443c-.005.029-.022.04-.05.03a.024.024 0 01-.01-.015c.016-.018.035-.032.06-.014v-.001zM6.92 21.444l.027.004-.01.023-.016-.028H6.92zM47.85 11.556c-1.34-.58-2.38-1.04-3.8-1.04-2.88 0-4.68 1.92-4.68 4.58 0 2.64 1.74 4.58 4.52 4.58.54 0 1.04-.08 1.54-.18v-4.46h2.76v6.36c-1.14.46-2.7.92-4.34.92-4.24 0-7.3-3.02-7.3-7.22 0-4.2 3.06-7.22 7.4-7.22 1.54 0 2.84.36 3.9.8v2.88zM55.731 10.656c3.44 0 5.86 2.54 5.86 5.84s-2.42 5.84-5.86 5.84c-3.42 0-5.84-2.54-5.84-5.84s2.42-5.84 5.84-5.84zm-3.1 5.84c0 1.84 1.2 3.28 3.1 3.28 1.92 0 3.12-1.44 3.12-3.28 0-1.84-1.2-3.28-3.12-3.28-1.9 0-3.1 1.44-3.1 3.28zM63.246 22.096v-15h2.72v15h-2.72zM76.674 16.496c0-1.84-1.18-3.36-3.16-3.36-1.94 0-3.12 1.52-3.12 3.36 0 1.84 1.18 3.36 3.12 3.36 1.98 0 3.16-1.52 3.16-3.36zm-9.02 0c0-3.58 2.28-5.84 5.16-5.84 1.68 0 3.02.76 3.78 2.24v-5.8h2.72v15h-2.64v-1.92c-.84 1.42-2.2 2.16-3.86 2.16-2.88 0-5.16-2.26-5.16-5.84zM88.882 8.096v2.6h-4.74v3.2h4.5v2.5h-4.5v5.7h-2.74v-14h7.48zM95.847 10.656c3.44 0 5.86 2.54 5.86 5.84s-2.42 5.84-5.86 5.84c-3.42 0-5.84-2.54-5.84-5.84s2.42-5.84 5.84-5.84zm-3.1 5.84c0 1.84 1.2 3.28 3.1 3.28 1.92 0 3.12-1.44 3.12-3.28 0-1.84-1.2-3.28-3.12-3.28-1.9 0-3.1 1.44-3.1 3.28zM102.042 22.096l3.16-5.6-3.16-5.6h3.22l2.1 4.12 2.04-4.12h3.14l-3.16 5.6 3.16 5.6h-3.2l-2.04-4.12-2.1 4.12h-3.16z"/><defs><linearGradient id="bpaint0_linear_302_2058" x1="56.271" y1=".206" x2="56.271" y2="29.794" gradientUnits="userSpaceOnUse"><stop stop-color="#ECA72F"/><stop offset="1" stop-color="#EDCA4F"/></linearGradient><linearGradient id="bpaint1_linear_302_2058" x1="56.271" y1=".206" x2="56.271" y2="29.794" gradientUnits="userSpaceOnUse"><stop stop-color="#ECA72F"/><stop offset="1" stop-color="#EDCA4F"/></linearGradient><linearGradient id="bpaint2_linear_302_2058" x1="56.271" y1=".206" x2="56.271" y2="29.794" gradientUnits="userSpaceOnUse"><stop stop-color="#ECA72F"/><stop offset="1" stop-color="#EDCA4F"/></linearGradient><linearGradient id="bpaint3_linear_302_2058" x1="56.271" y1=".206" x2="56.271" y2="29.794" gradientUnits="userSpaceOnUse"><stop stop-color="#ECA72F"/><stop offset="1" stop-color="#EDCA4F"/></linearGradient><linearGradient id="bpaint4_linear_302_2058" x1="56.271" y1=".206" x2="56.271" y2="29.794" gradientUnits="userSpaceOnUse"><stop stop-color="#ECA72F"/><stop offset="1" stop-color="#EDCA4F"/></linearGradient><linearGradient id="bpaint5_linear_302_2058" x1="56.271" y1=".206" x2="56.271" y2="29.794" gradientUnits="userSpaceOnUse"><stop stop-color="#ECA72F"/><stop offset="1" stop-color="#EDCA4F"/></linearGradient><linearGradient id="bpaint6_linear_302_2058" x1="56.271" y1=".206" x2="56.271" y2="29.794" gradientUnits="userSpaceOnUse"><stop stop-color="#ECA72F"/><stop offset="1" stop-color="#EDCA4F"/></linearGradient><linearGradient id="bpaint7_linear_302_2058" x1="56.271" y1=".206" x2="56.271" y2="29.794" gradientUnits="userSpaceOnUse"><stop stop-color="#ECA72F"/><stop offset="1" stop-color="#EDCA4F"/></linearGradient><linearGradient id="bpaint8_linear_302_2058" x1="56.271" y1=".206" x2="56.271" y2="29.794" gradientUnits="userSpaceOnUse"><stop stop-color="#ECA72F"/><stop offset="1" stop-color="#EDCA4F"/></linearGradient><linearGradient id="bpaint9_linear_302_2058" x1="56.271" y1=".206" x2="56.271" y2="29.794" gradientUnits="userSpaceOnUse"><stop stop-color="#ECA72F"/><stop offset="1" stop-color="#EDCA4F"/></linearGradient><linearGradient id="bpaint10_linear_302_2058" x1="56.271" y1=".206" x2="56.271" y2="29.794" gradientUnits="userSpaceOnUse"><stop stop-color="#ECA72F"/><stop offset="1" stop-color="#EDCA4F"/></linearGradient><linearGradient id="bpaint11_linear_302_2058" x1="56.271" y1=".206" x2="56.271" y2="29.794" gradientUnits="userSpaceOnUse"><stop stop-color="#ECA72F"/><stop offset="1" stop-color="#EDCA4F"/></linearGradient><linearGradient id="bpaint12_linear_302_2058" x1="56.271" y1=".206" x2="56.271" y2="29.794" gradientUnits="userSpaceOnUse"><stop stop-color="#ECA72F"/><stop offset="1" stop-color="#EDCA4F"/></linearGradient><linearGradient id="bpaint13_linear_302_2058" x1="56.271" y1=".206" x2="56.271" y2="29.794" gradientUnits="userSpaceOnUse"><stop stop-color="#ECA72F"/><stop offset="1" stop-color="#EDCA4F"/></linearGradient><linearGradient id="bpaint14_linear_302_2058" x1="56.271" y1=".206" x2="56.271" y2="29.794" gradientUnits="userSpaceOnUse"><stop stop-color="#ECA72F"/><stop offset="1" stop-color="#EDCA4F"/></linearGradient><linearGradient id="bpaint15_linear_302_2058" x1="56.271" y1=".206" x2="56.271" y2="29.794" gradientUnits="userSpaceOnUse"><stop stop-color="#ECA72F"/><stop offset="1" stop-color="#EDCA4F"/></linearGradient></defs></svg></svg>