<?xml version="1.0" encoding="utf-8"?><svg viewBox="0 0 290 290" xmlns="http://www.w3.org/2000/svg" xmlns:xlink="http://www.w3.org/1999/xlink"><style>:root>svg{display:none}:root>svg:target{display:block}</style><svg viewBox="0 0 290 290" id="favicon" xmlns="http://www.w3.org/2000/svg"><g clip-path="url(#aclip0_603_11)"><g filter="url(#afilter0_f_603_11)"><path d="M39.126 281.638l55.742 39.407L290 39.688 234.258.282 39.126 281.638z" fill-opacity=".72"/></g><g filter="url(#afilter1_f_603_11)"><ellipse cx="177.125" cy="100.657" rx="103.103" ry="31.724" fill-opacity=".24"/></g><g filter="url(#afilter2_f_603_11)"><ellipse cx="89.091" cy="146.921" rx="89.091" ry="31.724" fill-opacity=".2"/></g></g><defs><filter id="afilter0_f_603_11" x="32.781" y="-6.063" width="263.563" height="333.452" filterUnits="userSpaceOnUse" color-interpolation-filters="sRGB"><feFlood flood-opacity="0" result="BackgroundImageFix"/><feBlend in="SourceGraphic" in2="BackgroundImageFix" result="shape"/><feGaussianBlur stdDeviation="3.172" result="effect1_foregroundBlur_603_11"/></filter><filter id="afilter1_f_603_11" x="-31.724" y="-36.813" width="417.699" height="274.941" filterUnits="userSpaceOnUse" color-interpolation-filters="sRGB"><feFlood flood-opacity="0" result="BackgroundImageFix"/><feBlend in="SourceGraphic" in2="BackgroundImageFix" result="shape"/><feGaussianBlur stdDeviation="52.873" result="effect1_foregroundBlur_603_11"/></filter><filter id="afilter2_f_603_11" x="-105.747" y="9.451" width="389.676" height="274.941" filterUnits="userSpaceOnUse" color-interpolation-filters="sRGB"><feFlood flood-opacity="0" result="BackgroundImageFix"/><feBlend in="SourceGraphic" in2="BackgroundImageFix" result="shape"/><feGaussianBlur stdDeviation="52.873" result="effect1_foregroundBlur_603_11"/></filter><radialGradient id="apaint0_radial_603_11" cx="0" cy="0" r="1" gradientUnits="userSpaceOnUse" gradientTransform="matrix(79.0456 67.39449 -67.4931 79.16126 110.637 106.511)"><stop stop-color="#00E6F4"/><stop offset="1" stop-color="#12131A" stop-opacity="0"/></radialGradient><clipPath id="aclip0_603_11"><path d="M0 0h290v290H0z"/></clipPath></defs></svg><svg viewBox="0 0 113 30" id="logo" xmlns="http://www.w3.org/2000/svg"><path d="M13.024 4.556c.888-.026 1.769.03 2.639.223.133.03.18.06.135.216-.175.62-.108 1.248-.025 1.874.12.91.478 1.751.75 2.618.24.768.444 1.543.443 2.359 0 .99-.355 1.823-1.087 2.49-.43.391-.854.787-1.227 1.233-.348.414-.654.853-.748 1.4-.066.384-.024.772 0 1.157.052.846.219 1.682.226 2.53.011 1.157-.195 2.246-.997 3.148-.11.123-.178.135-.292 0-.528-.618-.801-1.342-.903-2.138-.118-.918-.022-1.83.093-2.74.067-.52.1-1.042.115-1.566.014-.488-.147-.93-.417-1.334-.367-.55-.823-1.019-1.31-1.456-.48-.429-.91-.889-1.136-1.507-.254-.695-.246-1.405-.132-2.123.157-.977.527-1.893.826-2.829.276-.862.422-1.742.356-2.65a1.812 1.812 0 00-.09-.498c-.048-.128 0-.162.107-.187a9.958 9.958 0 011.721-.226c.316-.006.635.006.953.006zM2.703 12.95c-.004-.51.009-1.014-.009-1.52a16.988 16.988 0 00-1.067-5.422C1.23 4.947.892 3.863.685 2.744c-.101-.553-.17-1.11-.06-1.671.129-.648.572-.949 1.229-.848.357.057.705.164 1.032.32 1.627.768 3.196 1.637 4.613 2.756.477.376.919.787 1.292 1.27.214.27.344.597.372.94.11 1.314-.35 2.373-1.417 3.152-.74.542-1.541.991-2.313 1.485-.273.175-.545.353-.808.542-.827.591-1.555 1.27-1.922 2.26zM23.344 12.95c-.385-1.03-1.153-1.72-2.011-2.327-.944-.664-1.961-1.215-2.91-1.872-.572-.396-1.027-.888-1.299-1.536-.272-.647-.316-1.328-.187-2.018.06-.327.271-.572.474-.813.558-.667 1.239-1.194 1.947-1.685A25.048 25.048 0 0123.282.494c.273-.124.562-.21.858-.258.777-.125 1.25.245 1.318 1.04.062.737-.071 1.453-.242 2.164-.29 1.207-.734 2.367-1.122 3.543-.404 1.226-.61 2.49-.7 3.776a23.268 23.268 0 00-.05 2.191z"/><path d="M12.708 29.787c-.13.014-.243-.042-.361-.07-.911-.221-1.604-.737-2.114-1.523-.542-.836-.869-1.762-1.143-2.71-.246-.856-.478-1.717-.786-2.552A7.359 7.359 0 006.61 20.25c-.505-.509-1.009-1.02-1.445-1.591-.479-.622-.838-1.297-.923-2.093a3.53 3.53 0 01.156-1.44 5.552 5.552 0 011.076-1.97c.67-.788 1.511-.928 2.408-.41.322.19.621.418.89.678.657.617 1.231 1.308 1.8 2.004.467.572.519 1.237.377 1.931-.173.844-.482 1.649-.712 2.476-.403 1.451-.615 2.927-.578 4.433.031 1.329.311 2.596 1.055 3.726a4.91 4.91 0 001.893 1.711c.036.019.085.023.101.082zm-2.55-13.412c-.045-.033-.073-.056-.104-.075a4.402 4.402 0 01-1.407-1.319 4.208 4.208 0 00-.336-.425c-.568-.655-1.373-.765-2.283-.428.571.46 1.065.986 1.525 1.543a2.41 2.41 0 001.59.89c.348.047.69.014 1.015-.186zM13.285 29.788c1.651-.83 2.536-2.195 2.919-3.927.23-1.04.214-2.091.133-3.146-.122-1.586-.572-3.094-1.045-4.598-.144-.458-.259-.923-.26-1.41 0-.433.104-.838.37-1.175.673-.852 1.364-1.69 2.199-2.395.214-.181.448-.338.697-.467.723-.374 1.5-.32 2.078.288.877.918 1.418 2.003 1.44 3.295.016.915-.386 1.686-.926 2.394-.338.45-.713.87-1.123 1.254-1.233 1.14-1.958 2.56-2.403 4.152-.255.904-.488 1.817-.823 2.697-.271.716-.628 1.385-1.13 1.968-.536.62-1.247.91-2.025 1.075a.495.495 0 01-.1-.005zm2.612-13.418c.115.09.251.147.396.165.792.133 1.478-.108 2.02-.678.557-.587 1.063-1.22 1.708-1.733-.124-.07-.247-.085-.366-.113-.821-.19-1.517-.004-2.043.687-.117.153-.237.304-.348.462-.216.306-.48.576-.782.798-.19.141-.386.273-.585.413v-.001z"/><path d="M6.86 21.39c-.974-.981-2.142-1.686-3.344-2.339C1.758 18.097.83 16.603.624 14.633c-.132-1.265.05-2.497.354-3.72.156-.633.26-1.27.18-1.926a1.885 1.885 0 00-.199-.65c.271.103.452.277.596.485.305.44.448.943.535 1.462.212 1.274.164 2.545-.057 3.814-.126.723-.202 1.446-.007 2.169.226.834.745 1.456 1.428 1.954.497.363 1.045.655 1.522 1.052a10.62 10.62 0 011.88 2.023.426.426 0 01.032.066l-.029.029zM19.158 21.363c.466-.716 1.048-1.33 1.684-1.894.43-.382.908-.7 1.395-1.005.727-.455 1.336-1.024 1.664-1.842.26-.65.283-1.324.188-2.006-.11-.784-.258-1.562-.264-2.357-.008-.994.026-1.985.395-2.927.164-.42.4-.788.846-.994-.39.969-.158 1.911.066 2.846.248 1.04.388 2.085.316 3.151-.136 2.069-1.03 3.682-2.887 4.699-1.024.56-2.027 1.152-2.912 1.923-.16.139-.31.29-.464.435l-.027-.029zM12.998 28.64c-.352.003-.695-.039-1.02-.184-.368-.166-.623-.436-.729-.826-.189-.703-.09-1.343.442-1.882.355-.359.778-.62 1.21-.868a.171.171 0 01.177 0c.508.248.978.55 1.334.999.47.595.5 1.262.253 1.943-.177.49-.609.677-1.09.77a3.09 3.09 0 01-.577.048z"/><path d="M9.387 7.516a3.169 3.169 0 01-.42 1.668c-.583 1.025-.686 2.09-.362 3.236-.196-.085-.367-.164-.542-.236-.51-.208-1.039-.318-1.589-.233-.703.11-1.217.515-1.62 1.078-.542.756-.813 1.62-1.002 2.516-.067.316-.112.636-.172.984-.303-1.273-.165-2.469.42-3.603.78-1.514 1.98-2.62 3.486-3.38.851-.428 1.446-1.039 1.745-1.942a.686.686 0 01.056-.088zM17.445 12.43a6.28 6.28 0 00.16-.883c.071-.727-.036-1.416-.384-2.063-.267-.497-.479-1.014-.547-1.581-.014-.114-.013-.23-.019-.354.06.024.062.064.073.097.295.859.856 1.457 1.672 1.868 1.614.814 2.89 1.992 3.662 3.655.492 1.058.587 2.222.297 3.367-.069-.474-.13-.903-.238-1.326-.214-.84-.497-1.648-1.047-2.334-.687-.856-1.567-1.123-2.62-.85a5.006 5.006 0 00-1.01.404zM7.398 23.712c-.93-1.019-2.064-1.749-3.321-2.267-1.959-.803-3.124-2.263-3.705-4.247-.248-.85-.41-2.041-.364-2.635.16 1.513.748 2.847 1.716 4.01.565.68 1.229 1.252 2.03 1.627 1.293.602 2.287 1.539 3.124 2.665.16.215.309.439.46.66.037.054.094.105.06.187zM26.034 14.636c-.075 2.063-.538 3.986-2.046 5.516-.523.531-1.153.904-1.834 1.201-1.282.562-2.478 1.258-3.446 2.294a.098.098 0 01-.11.033c.195-.28.377-.556.574-.82.834-1.122 1.816-2.068 3.11-2.653a4.65 4.65 0 00.994-.629c1.572-1.268 2.488-2.904 2.747-4.91a.155.155 0 01.011-.032zM6.888 21.363c.029.02.05.043.031.08l-.06-.052.029-.028zM19.187 21.39l-.061.053c-.02-.039.002-.06.031-.08l.03.028zM19.126 21.443c-.005.029-.022.04-.05.03a.024.024 0 01-.01-.015c.016-.018.035-.032.06-.014v-.001zM6.92 21.444l.027.004-.01.023-.016-.028H6.92zM47.85 11.556c-1.34-.58-2.38-1.04-3.8-1.04-2.88 0-4.68 1.92-4.68 4.58 0 2.64 1.74 4.58 4.52 4.58.54 0 1.04-.08 1.54-.18v-4.46h2.76v6.36c-1.14.46-2.7.92-4.34.92-4.24 0-7.3-3.02-7.3-7.22 0-4.2 3.06-7.22 7.4-7.22 1.54 0 2.84.36 3.9.8v2.88zM55.731 10.656c3.44 0 5.86 2.54 5.86 5.84s-2.42 5.84-5.86 5.84c-3.42 0-5.84-2.54-5.84-5.84s2.42-5.84 5.84-5.84zm-3.1 5.84c0 1.84 1.2 3.28 3.1 3.28 1.92 0 3.12-1.44 3.12-3.28 0-1.84-1.2-3.28-3.12-3.28-1.9 0-3.1 1.44-3.1 3.28zM63.246 22.096v-15h2.72v15h-2.72zM76.674 16.496c0-1.84-1.18-3.36-3.16-3.36-1.94 0-3.12 1.52-3.12 3.36 0 1.84 1.18 3.36 3.12 3.36 1.98 0 3.16-1.52 3.16-3.36zm-9.02 0c0-3.58 2.28-5.84 5.16-5.84 1.68 0 3.02.76 3.78 2.24v-5.8h2.72v15h-2.64v-1.92c-.84 1.42-2.2 2.16-3.86 2.16-2.88 0-5.16-2.26-5.16-5.84zM88.882 8.096v2.6h-4.74v3.2h4.5v2.5h-4.5v5.7h-2.74v-14h7.48zM95.847 10.656c3.44 0 5.86 2.54 5.86 5.84s-2.42 5.84-5.86 5.84c-3.42 0-5.84-2.54-5.84-5.84s2.42-5.84 5.84-5.84zm-3.1 5.84c0 1.84 1.2 3.28 3.1 3.28 1.92 0 3.12-1.44 3.12-3.28 0-1.84-1.2-3.28-3.12-3.28-1.9 0-3.1 1.44-3.1 3.28zM102.042 22.096l3.16-5.6-3.16-5.6h3.22l2.1 4.12 2.04-4.12h3.14l-3.16 5.6 3.16 5.6h-3.2l-2.04-4.12-2.1 4.12h-3.16z"/><defs><linearGradient id="bpaint0_linear_302_2058" x1="56.271" y1=".206" x2="56.271" y2="29.794" gradientUnits="userSpaceOnUse"><stop stop-color="#ECA72F"/><stop offset="1" stop-color="#EDCA4F"/></linearGradient><linearGradient id="bpaint1_linear_302_2058" x1="56.271" y1=".206" x2="56.271" y2="29.794" gradientUnits="userSpaceOnUse"><stop stop-color="#ECA72F"/><stop offset="1" stop-color="#EDCA4F"/></linearGradient><linearGradient id="bpaint2_linear_302_2058" x1="56.271" y1=".206" x2="56.271" y2="29.794" gradientUnits="userSpaceOnUse"><stop stop-color="#ECA72F"/><stop offset="1" stop-color="#EDCA4F"/></linearGradient><linearGradient id="bpaint3_linear_302_2058" x1="56.271" y1=".206" x2="56.271" y2="29.794" gradientUnits="userSpaceOnUse"><stop stop-color="#ECA72F"/><stop offset="1" stop-color="#EDCA4F"/></linearGradient><linearGradient id="bpaint4_linear_302_2058" x1="56.271" y1=".206" x2="56.271" y2="29.794" gradientUnits="userSpaceOnUse"><stop stop-color="#ECA72F"/><stop offset="1" stop-color="#EDCA4F"/></linearGradient><linearGradient id="bpaint5_linear_302_2058" x1="56.271" y1=".206" x2="56.271" y2="29.794" gradientUnits="userSpaceOnUse"><stop stop-color="#ECA72F"/><stop offset="1" stop-color="#EDCA4F"/></linearGradient><linearGradient id="bpaint6_linear_302_2058" x1="56.271" y1=".206" x2="56.271" y2="29.794" gradientUnits="userSpaceOnUse"><stop stop-color="#ECA72F"/><stop offset="1" stop-color="#EDCA4F"/></linearGradient><linearGradient id="bpaint7_linear_302_2058" x1="56.271" y1=".206" x2="56.271" y2="29.794" gradientUnits="userSpaceOnUse"><stop stop-color="#ECA72F"/><stop offset="1" stop-color="#EDCA4F"/></linearGradient><linearGradient id="bpaint8_linear_302_2058" x1="56.271" y1=".206" x2="56.271" y2="29.794" gradientUnits="userSpaceOnUse"><stop stop-color="#ECA72F"/><stop offset="1" stop-color="#EDCA4F"/></linearGradient><linearGradient id="bpaint9_linear_302_2058" x1="56.271" y1=".206" x2="56.271" y2="29.794" gradientUnits="userSpaceOnUse"><stop stop-color="#ECA72F"/><stop offset="1" stop-color="#EDCA4F"/></linearGradient><linearGradient id="bpaint10_linear_302_2058" x1="56.271" y1=".206" x2="56.271" y2="29.794" gradientUnits="userSpaceOnUse"><stop stop-color="#ECA72F"/><stop offset="1" stop-color="#EDCA4F"/></linearGradient><linearGradient id="bpaint11_linear_302_2058" x1="56.271" y1=".206" x2="56.271" y2="29.794" gradientUnits="userSpaceOnUse"><stop stop-color="#ECA72F"/><stop offset="1" stop-color="#EDCA4F"/></linearGradient><linearGradient id="bpaint12_linear_302_2058" x1="56.271" y1=".206" x2="56.271" y2="29.794" gradientUnits="userSpaceOnUse"><stop stop-color="#ECA72F"/><stop offset="1" stop-color="#EDCA4F"/></linearGradient><linearGradient id="bpaint13_linear_302_2058" x1="56.271" y1=".206" x2="56.271" y2="29.794" gradientUnits="userSpaceOnUse"><stop stop-color="#ECA72F"/><stop offset="1" stop-color="#EDCA4F"/></linearGradient><linearGradient id="bpaint14_linear_302_2058" x1="56.271" y1=".206" x2="56.271" y2="29.794" gradientUnits="userSpaceOnUse"><stop stop-color="#ECA72F"/><stop offset="1" stop-color="#EDCA4F"/></linearGradient><linearGradient id="bpaint15_linear_302_2058" x1="56.271" y1=".206" x2="56.271" y2="29.794" gradientUnits="userSpaceOnUse"><stop stop-color="#ECA72F"/><stop offset="1" stop-color="#EDCA4F"/></linearGradient></defs></svg></svg>