<svg width="27" height="30" viewBox="0 0 27 30" fill="none" xmlns="http://www.w3.org/2000/svg">
<path d="M13.095 4.46C13.9828 4.43379 14.8638 4.48981 15.7335 4.68274C15.8668 4.71256 15.9143 4.74283 15.8691 4.8996C15.6938 5.51948 15.7606 6.14704 15.8433 6.7737C15.9635 7.68364 16.3218 8.52445 16.5933 9.39102C16.8341 10.1591 17.0375 10.9339 17.0366 11.7499C17.0366 12.7412 16.6823 13.5729 15.9495 14.2407C15.5203 14.6315 15.096 15.0273 14.7224 15.4728C14.375 15.8871 14.0686 16.3267 13.9747 16.8734C13.9091 17.2574 13.9507 17.6451 13.9747 18.0305C14.0266 18.8767 14.1933 19.7126 14.2006 20.5606C14.2119 21.7177 14.0058 22.8061 13.2039 23.7079C13.0936 23.8317 13.0254 23.8434 12.912 23.7079C12.3834 23.0898 12.1105 22.366 12.0084 21.5704C11.8909 20.6523 11.9867 19.741 12.1024 18.8306C12.1688 18.3106 12.2027 17.7879 12.2171 17.2647C12.2311 16.7767 12.0698 16.3348 11.7997 15.93C11.4328 15.3811 10.9769 14.9117 10.4894 14.4743C10.01 14.0455 9.58038 13.5856 9.35402 12.9675C9.10011 12.2726 9.10733 11.562 9.22209 10.844C9.37887 9.86677 9.7489 8.95141 10.048 8.01527C10.3236 7.15322 10.47 6.2731 10.4036 5.36451C10.3968 5.19545 10.3664 5.02816 10.3132 4.86753C10.2658 4.73921 10.3132 4.70487 10.4212 4.68048C10.9872 4.55523 11.563 4.47965 12.1421 4.45457C12.4579 4.4487 12.7769 4.46 13.095 4.46Z" fill="url(#paint0_linear_59_3086)"/>
<path d="M2.77389 12.8545C2.77028 12.3444 2.78247 11.8397 2.76531 11.3341C2.70771 9.48074 2.34707 7.64929 1.69769 5.91244C1.301 4.85069 0.962595 3.76725 0.75612 2.64858C0.654463 2.09512 0.585336 1.53804 0.695577 0.976894C0.824342 0.329454 1.26802 0.0280987 1.92449 0.129303C2.28223 0.185637 2.62995 0.293377 2.95687 0.449183C4.58338 1.21726 6.15251 2.08608 7.57028 3.20521C8.04648 3.58066 8.48835 3.99225 8.86154 4.47478C9.07623 4.74445 9.20583 5.0719 9.23383 5.41545C9.34452 6.72885 8.88413 7.78789 7.81696 8.56725C7.076 9.10942 6.2754 9.55852 5.50371 10.0523C5.23037 10.2272 4.95928 10.4052 4.69543 10.5945C3.86862 11.1855 3.14121 11.8636 2.77389 12.8545Z" fill="url(#paint1_linear_59_3086)"/>
<path d="M23.4147 12.8546C23.0302 11.824 22.2621 11.1341 21.4037 10.5273C20.4594 9.86359 19.4424 9.31193 18.4936 8.65546C17.9216 8.25968 17.4671 7.76675 17.1951 7.11931C16.9231 6.47187 16.8789 5.791 17.0081 5.10109C17.0686 4.77398 17.2792 4.5291 17.482 4.28784C18.0396 3.62097 18.7204 3.09416 19.4293 2.60305C20.6683 1.75188 21.9815 1.01396 23.3528 0.398229C23.6261 0.274248 23.9148 0.187627 24.2112 0.140699C24.9879 0.0150963 25.4614 0.385578 25.5287 1.17986C25.5911 1.91766 25.4578 2.63332 25.2865 3.34446C24.996 4.55169 24.5528 5.71103 24.1647 6.88754C23.7608 8.11284 23.5548 9.37745 23.4639 10.6633C23.4079 11.3907 23.4021 12.1195 23.4147 12.8546Z" fill="url(#paint2_linear_59_3086)"/>
<path d="M12.7791 29.6915C12.6495 29.7046 12.5361 29.6495 12.4177 29.621C11.5068 29.4001 10.8142 28.8837 10.3037 28.0984C9.76151 27.2617 9.43485 26.3364 9.16106 25.3876C8.91437 24.5323 8.68304 23.6707 8.37491 22.8358C8.01192 21.8295 7.43389 20.9144 6.68109 20.1543C6.17597 19.6456 5.6722 19.1337 5.2353 18.563C4.75729 17.9409 4.3981 17.2659 4.31316 16.4703C4.26498 15.9849 4.3179 15.4947 4.46859 15.0308C4.68949 14.3074 5.05586 13.6368 5.54524 13.06C6.21527 12.2725 7.05609 12.1325 7.95292 12.6493C8.27521 12.8402 8.57408 13.0681 8.84344 13.3284C9.49946 13.9451 10.0742 14.6364 10.6421 15.3317C11.1092 15.9037 11.1617 16.5688 11.0193 17.2636C10.8467 18.1072 10.5373 18.9118 10.3077 19.7395C9.90518 21.1903 9.69328 22.6663 9.72943 24.1718C9.76105 25.501 10.0412 26.7679 10.7844 27.8978C11.2537 28.6253 11.9069 29.2157 12.6779 29.6093C12.7136 29.6278 12.7629 29.6319 12.7791 29.6915ZM10.2291 16.2791C10.1839 16.2462 10.1559 16.2227 10.1248 16.2037C9.56407 15.8626 9.0856 15.4356 8.71828 14.8853C8.61549 14.7367 8.5032 14.5948 8.38214 14.4606C7.81422 13.8051 7.00865 13.6948 6.09916 14.0323C6.66979 14.4913 7.16362 15.0182 7.62401 15.5752C8.04103 16.0804 8.56874 16.3795 9.21301 16.4657C9.56181 16.5123 9.90428 16.4793 10.2291 16.2791Z" fill="url(#paint3_linear_59_3086)"/>
<path d="M13.3562 29.6923C15.0071 28.8614 15.8917 27.4965 16.2749 25.7647C16.5053 24.7256 16.489 23.6738 16.4082 22.6188C16.2862 21.0334 15.8362 19.5253 15.3627 18.0208C15.2186 17.5626 15.1042 17.0977 15.1033 16.6107C15.1033 16.1783 15.2073 15.7735 15.4729 15.436C16.1461 14.5843 16.8365 13.7458 17.6714 13.0414C17.8856 12.8598 18.1196 12.7029 18.369 12.5738C19.0919 12.2001 19.8681 12.2544 20.4473 12.862C21.3234 13.7797 21.8646 14.8649 21.8868 16.1566C21.9026 17.072 21.5014 17.8428 20.9606 18.5512C20.6234 19.0009 20.2476 19.4203 19.8374 19.8045C18.6048 20.9444 17.8797 22.3644 17.4347 23.9575C17.1803 24.8611 16.9467 25.7742 16.6115 26.6544C16.3404 27.3696 15.9839 28.0391 15.482 28.6215C14.9461 29.2414 14.2345 29.5328 13.4565 29.6973C13.423 29.6991 13.3894 29.6974 13.3562 29.6923ZM15.9681 16.2736C16.0825 16.3635 16.2191 16.4206 16.3634 16.439C17.1564 16.5723 17.8417 16.3306 18.3839 15.7613C18.941 15.1739 19.447 14.5414 20.0917 14.0277C19.9679 13.9572 19.8446 13.9428 19.7258 13.9152C18.9048 13.725 18.2086 13.9107 17.6827 14.6015C17.5657 14.7556 17.4455 14.9065 17.3344 15.0641C17.1187 15.3705 16.8547 15.6398 16.5527 15.8616C16.363 16.0035 16.1673 16.1354 15.9681 16.2754V16.2736Z" fill="url(#paint4_linear_59_3086)"/>
<path d="M6.93005 21.2946C5.95641 20.3128 4.78894 19.6084 3.58668 18.9551C1.82915 18.0009 0.900684 16.5068 0.695112 14.5374C0.563184 13.2723 0.745715 12.0402 1.04888 10.8163C1.2052 10.1837 1.30912 9.54624 1.2296 8.89112C1.203 8.66409 1.13533 8.44379 1.0299 8.24097C1.30099 8.34398 1.48171 8.51838 1.62538 8.72621C1.9308 9.16536 2.07403 9.66868 2.16032 10.1883C2.37267 11.4624 2.32523 12.7333 2.1034 14.002C1.97734 14.7249 1.90189 15.4477 2.09707 16.1706C2.32297 17.0051 2.8421 17.6268 3.52478 18.1247C4.02177 18.4884 4.57026 18.7803 5.04692 19.177C5.75867 19.7667 6.39037 20.4468 6.92599 21.2002C6.93871 21.2212 6.94959 21.2432 6.95852 21.2661L6.93005 21.2946Z" fill="url(#paint5_linear_59_3086)"/>
<path d="M19.2292 21.2675C19.6951 20.5514 20.2765 19.937 20.9131 19.3727C21.3437 18.9913 21.8208 18.6737 22.3079 18.3683C23.0348 17.9129 23.6434 17.3436 23.9719 16.5263C24.2321 15.8766 24.2547 15.2025 24.1594 14.5198C24.0505 13.7364 23.9018 12.9579 23.896 12.1627C23.8883 11.1688 23.9222 10.1784 24.2908 9.23592C24.4549 8.81619 24.6907 8.44842 25.1371 8.24194C24.7476 9.21107 24.9785 10.1535 25.2026 11.0883C25.4506 12.1275 25.5911 13.1734 25.5189 14.2392C25.3833 16.3081 24.4883 17.921 22.6323 18.938C21.6076 19.4983 20.605 20.0906 19.7199 20.8609C19.56 21.0001 19.4104 21.151 19.2564 21.296L19.2292 21.2675Z" fill="url(#paint6_linear_59_3086)"/>
<path d="M13.0693 28.5444C12.7173 28.5471 12.374 28.5055 12.0487 28.3596C11.6809 28.1942 11.4256 27.9236 11.3203 27.5341C11.131 26.8311 11.23 26.1909 11.7622 25.6519C12.1173 25.2931 12.5398 25.0325 12.9726 24.784C12.9992 24.7681 13.0295 24.7598 13.0605 24.7598C13.0914 24.7598 13.1218 24.7681 13.1484 24.784C13.6571 25.0325 14.127 25.3334 14.483 25.7829C14.9538 26.3779 14.9831 27.0448 14.736 27.7257C14.5584 28.2159 14.127 28.4034 13.6462 28.4969C13.4558 28.5308 13.2627 28.5466 13.0693 28.5444Z" fill="url(#paint7_linear_59_3086)"/>
<path d="M9.45746 7.42017C9.47401 8.00425 9.32875 8.58154 9.03773 9.08824C8.45444 10.1129 8.35143 11.1774 8.67628 12.3245C8.47975 12.2387 8.30896 12.1601 8.13411 12.0887C7.62402 11.88 7.09496 11.7697 6.54511 11.8556C5.84209 11.9649 5.32794 12.3706 4.92538 12.9336C4.38321 13.689 4.11212 14.5533 3.92237 15.4488C3.8555 15.765 3.81077 16.0849 3.75113 16.4333C3.44752 15.1601 3.58532 13.9646 4.16996 12.8306C4.95113 11.3156 6.15023 10.2101 7.657 9.45059C8.50821 9.02182 9.10279 8.41143 9.40143 7.50782C9.41786 7.47722 9.43659 7.44792 9.45746 7.42017Z" fill="url(#paint8_linear_59_3086)"/>
<path d="M17.5154 12.3345C17.59 12.0441 17.6438 11.7488 17.6762 11.4508C17.7472 10.7247 17.6396 10.0352 17.2917 9.38825C17.0247 8.89126 16.8133 8.3744 16.7446 7.80693C16.731 7.69307 16.7319 7.57741 16.7261 7.45361C16.7848 7.47711 16.7875 7.51687 16.7988 7.5503C17.0943 8.40873 17.655 9.00738 18.4705 9.41852C20.0844 10.2318 21.3598 11.4105 22.1324 13.0727C22.6249 14.1313 22.7197 15.2947 22.4301 16.4405C22.361 15.9666 22.2991 15.5369 22.1916 15.114C21.9779 14.275 21.6946 13.4663 21.1443 12.78C20.458 11.9242 19.5774 11.6572 18.5238 11.9301C18.18 12.0182 17.8569 12.1623 17.5154 12.3345Z" fill="url(#paint9_linear_59_3086)"/>
<path d="M7.46859 23.6164C6.53922 22.5971 5.40519 21.8674 4.14736 21.3492C2.18877 20.5454 1.02401 19.0861 0.442537 17.1022C0.194495 16.2524 0.0331996 15.061 0.0783803 14.4673C0.237868 15.9804 0.827025 17.3137 1.79525 18.4771C2.35956 19.157 3.02371 19.7286 3.82522 20.1036C5.11829 20.7058 6.11181 21.6429 6.94901 22.7692C7.10895 22.9843 7.2576 23.2079 7.40895 23.4289C7.446 23.4826 7.50293 23.5342 7.46859 23.6164Z" fill="url(#paint10_linear_59_3086)"/>
<path d="M26.1052 14.5398C26.0293 16.6032 25.5671 18.5261 24.0585 20.0564C23.5353 20.5877 22.906 20.96 22.2251 21.2577C20.9424 21.8189 19.7469 22.5155 18.7787 23.5515C18.766 23.5678 18.7485 23.5796 18.7288 23.5855C18.709 23.5913 18.6879 23.5908 18.6685 23.5841C18.8636 23.304 19.0457 23.0283 19.2427 22.7636C20.0763 21.6422 21.0585 20.6961 22.3525 20.1115C22.7091 19.9448 23.0431 19.7335 23.3465 19.4826C24.9191 18.2145 25.8347 16.5779 26.0935 14.5728C26.0961 14.5614 26.1001 14.5503 26.1052 14.5398Z" fill="url(#paint11_linear_59_3086)"/>
<path d="M6.95857 21.2676C6.98748 21.2875 7.00962 21.3096 6.99019 21.348L6.9292 21.2951L6.95857 21.2676Z" fill="url(#paint12_linear_59_3086)"/>
<path d="M19.2575 21.2947L19.1965 21.3471C19.1771 21.3082 19.1993 21.2865 19.2282 21.2671L19.2575 21.2947Z" fill="url(#paint13_linear_59_3086)"/>
<path d="M19.1966 21.3471C19.1916 21.3761 19.1749 21.3878 19.1465 21.377C19.1416 21.3735 19.1382 21.3684 19.137 21.3625C19.1532 21.344 19.1718 21.3304 19.1975 21.348L19.1966 21.3471Z" fill="url(#paint14_linear_59_3086)"/>
<path d="M6.99097 21.3481L7.01805 21.3518L7.00824 21.3747L6.9919 21.3472L6.99097 21.3481Z" fill="url(#paint15_linear_59_3086)"/>
<defs>
<linearGradient id="paint0_linear_59_3086" x1="13.0912" y1="4.45288" x2="13.0912" y2="23.8052" gradientUnits="userSpaceOnUse">
<stop stop-color="#ECA72F"/>
<stop offset="1" stop-color="#EDCA4F"/>
</linearGradient>
<linearGradient id="paint1_linear_59_3086" x1="4.94465" y1="0.110107" x2="4.94465" y2="12.8545" gradientUnits="userSpaceOnUse">
<stop stop-color="#ECA72F"/>
<stop offset="1" stop-color="#EDCA4F"/>
</linearGradient>
<linearGradient id="paint2_linear_59_3086" x1="21.2414" y1="0.116699" x2="21.2414" y2="12.8546" gradientUnits="userSpaceOnUse">
<stop stop-color="#ECA72F"/>
<stop offset="1" stop-color="#EDCA4F"/>
</linearGradient>
<linearGradient id="paint3_linear_59_3086" x1="8.53751" y1="12.3437" x2="8.53751" y2="29.6935" gradientUnits="userSpaceOnUse">
<stop stop-color="#ECA72F"/>
<stop offset="1" stop-color="#EDCA4F"/>
</linearGradient>
<linearGradient id="paint4_linear_59_3086" x1="17.6217" y1="12.3386" x2="17.6217" y2="29.698" gradientUnits="userSpaceOnUse">
<stop stop-color="#ECA72F"/>
<stop offset="1" stop-color="#EDCA4F"/>
</linearGradient>
<linearGradient id="paint5_linear_59_3086" x1="3.80506" y1="8.24097" x2="3.80506" y2="21.2946" gradientUnits="userSpaceOnUse">
<stop stop-color="#ECA72F"/>
<stop offset="1" stop-color="#EDCA4F"/>
</linearGradient>
<linearGradient id="paint6_linear_59_3086" x1="22.3835" y1="8.24194" x2="22.3835" y2="21.296" gradientUnits="userSpaceOnUse">
<stop stop-color="#ECA72F"/>
<stop offset="1" stop-color="#EDCA4F"/>
</linearGradient>
<linearGradient id="paint7_linear_59_3086" x1="13.0605" y1="24.7598" x2="13.0605" y2="28.5446" gradientUnits="userSpaceOnUse">
<stop stop-color="#ECA72F"/>
<stop offset="1" stop-color="#EDCA4F"/>
</linearGradient>
<linearGradient id="paint8_linear_59_3086" x1="6.52673" y1="7.42017" x2="6.52673" y2="16.4333" gradientUnits="userSpaceOnUse">
<stop stop-color="#ECA72F"/>
<stop offset="1" stop-color="#EDCA4F"/>
</linearGradient>
<linearGradient id="paint9_linear_59_3086" x1="19.6596" y1="7.45361" x2="19.6596" y2="16.4405" gradientUnits="userSpaceOnUse">
<stop stop-color="#ECA72F"/>
<stop offset="1" stop-color="#EDCA4F"/>
</linearGradient>
<linearGradient id="paint10_linear_59_3086" x1="3.77499" y1="14.4673" x2="3.77499" y2="23.6164" gradientUnits="userSpaceOnUse">
<stop stop-color="#ECA72F"/>
<stop offset="1" stop-color="#EDCA4F"/>
</linearGradient>
<linearGradient id="paint11_linear_59_3086" x1="22.3868" y1="14.5398" x2="22.3868" y2="23.5895" gradientUnits="userSpaceOnUse">
<stop stop-color="#ECA72F"/>
<stop offset="1" stop-color="#EDCA4F"/>
</linearGradient>
<linearGradient id="paint12_linear_59_3086" x1="6.96336" y1="21.2676" x2="6.96336" y2="21.348" gradientUnits="userSpaceOnUse">
<stop stop-color="#ECA72F"/>
<stop offset="1" stop-color="#EDCA4F"/>
</linearGradient>
<linearGradient id="paint13_linear_59_3086" x1="19.2234" y1="21.2671" x2="19.2234" y2="21.3471" gradientUnits="userSpaceOnUse">
<stop stop-color="#ECA72F"/>
<stop offset="1" stop-color="#EDCA4F"/>
</linearGradient>
<linearGradient id="paint14_linear_59_3086" x1="19.1672" y1="21.3398" x2="19.1672" y2="21.3809" gradientUnits="userSpaceOnUse">
<stop stop-color="#ECA72F"/>
<stop offset="1" stop-color="#EDCA4F"/>
</linearGradient>
<linearGradient id="paint15_linear_59_3086" x1="7.00451" y1="21.3472" x2="7.00451" y2="21.3747" gradientUnits="userSpaceOnUse">
<stop stop-color="#ECA72F"/>
<stop offset="1" stop-color="#EDCA4F"/>
</linearGradient>
</defs>
</svg>
