<svg width="113" height="30" viewBox="0 0 113 30" fill="none" xmlns="http://www.w3.org/2000/svg">
<path d="M13.0241 4.55576C13.9119 4.52956 14.793 4.58558 15.6627 4.7785C15.796 4.80832 15.8434 4.83859 15.7982 4.99537C15.6229 5.61525 15.6898 6.24281 15.7725 6.86947C15.8927 7.77941 16.251 8.62022 16.5225 9.48679C16.7633 10.2549 16.9666 11.0297 16.9657 11.8457C16.9657 12.8369 16.6115 13.6687 15.8787 14.3365C15.4494 14.7273 15.0252 15.1231 14.6516 15.5686C14.3041 15.9829 13.9978 16.4225 13.9038 16.9692C13.8383 17.3532 13.8799 17.7409 13.9038 18.1262C13.9558 18.9725 14.1225 19.8083 14.1297 20.6564C14.141 21.8134 13.935 22.9018 13.133 23.8037C13.0228 23.9274 12.9546 23.9392 12.8412 23.8037C12.3125 23.1856 12.0397 22.4618 11.9375 21.6662C11.8201 20.7481 11.9159 19.8368 12.0315 18.9264C12.0979 18.4064 12.1318 17.8836 12.1463 17.3604C12.1603 16.8725 11.999 16.4306 11.7288 16.0258C11.3619 15.4768 10.9061 15.0074 10.4186 14.5701C9.93921 14.1413 9.50954 13.6814 9.28318 13.0633C9.02927 12.3684 9.0365 11.6577 9.15125 10.9398C9.30803 9.96254 9.67806 9.04718 9.97716 8.11103C10.2528 7.24898 10.3991 6.36886 10.3327 5.46028C10.326 5.29121 10.2955 5.12393 10.2424 4.96329C10.1949 4.83498 10.2424 4.80064 10.3504 4.77624C10.9163 4.651 11.4922 4.57541 12.0713 4.55034C12.3871 4.54447 12.7061 4.55576 13.0241 4.55576Z" fill="url(#paint0_linear_302_2058)"/>
<path d="M2.70306 12.9503C2.69945 12.4402 2.71165 11.9356 2.69448 11.43C2.63688 9.57662 2.27624 7.74517 1.62686 6.00832C1.23017 4.94657 0.891766 3.86314 0.68529 2.74447C0.583634 2.191 0.514507 1.63392 0.624748 1.07278C0.753513 0.42534 1.19719 0.123985 1.85366 0.22519C2.2114 0.281523 2.55912 0.389263 2.88604 0.545069C4.51255 1.31314 6.08168 2.18197 7.49945 3.30109C7.97565 3.67654 8.41752 4.08814 8.79071 4.57067C9.0054 4.84033 9.135 5.16778 9.163 5.51133C9.27369 6.82474 8.8133 7.88377 7.74613 8.66314C7.00517 9.20531 6.20457 9.65441 5.43288 10.1482C5.15954 10.3231 4.88845 10.5011 4.6246 10.6904C3.79779 11.2814 3.07038 11.9595 2.70306 12.9503Z" fill="url(#paint1_linear_302_2058)"/>
<path d="M23.3439 12.9503C22.9594 11.9198 22.1913 11.2299 21.3329 10.6231C20.3886 9.95938 19.3716 9.40772 18.4228 8.75124C17.8508 8.35546 17.3963 7.86254 17.1243 7.2151C16.8523 6.56766 16.808 5.88679 16.9372 5.19688C16.9978 4.86977 17.2083 4.62489 17.4112 4.38362C17.9687 3.71676 18.6496 3.18995 19.3585 2.69883C20.5975 1.84767 21.9106 1.10975 23.282 0.494015C23.5553 0.370035 23.844 0.283413 24.1404 0.236485C24.9171 0.110882 25.3906 0.481364 25.4579 1.27564C25.5202 2.01344 25.3869 2.72911 25.2157 3.44025C24.9252 4.64748 24.482 5.80682 24.0939 6.98332C23.69 8.20862 23.4839 9.47323 23.3931 10.7591C23.3371 11.4865 23.3312 12.2152 23.3439 12.9503Z" fill="url(#paint2_linear_302_2058)"/>
<path d="M12.7083 29.7874C12.5787 29.8005 12.4653 29.7454 12.3469 29.7169C11.436 29.496 10.7434 28.9796 10.2329 28.1943C9.69071 27.3576 9.36405 26.4323 9.09026 25.4835C8.84357 24.6282 8.61225 23.7666 8.30412 22.9317C7.94112 21.9253 7.36309 21.0103 6.61029 20.2502C6.10517 19.7415 5.6014 19.2296 5.16451 18.6589C4.68649 18.0368 4.32731 17.3618 4.24237 16.5662C4.19419 16.0807 4.24711 15.5906 4.39779 15.1267C4.61869 14.4033 4.98507 13.7326 5.47445 13.1559C6.14448 12.3684 6.98529 12.2284 7.88213 12.7452C8.20441 12.9361 8.50328 13.164 8.77264 13.4243C9.42866 14.041 10.0034 14.7323 10.5713 15.4276C11.0385 15.9996 11.0909 16.6646 10.9485 17.3595C10.776 18.203 10.4665 19.0077 10.2369 19.8354C9.83439 21.2862 9.62249 22.7622 9.65863 24.2677C9.69026 25.5969 9.97038 26.8637 10.7136 27.9937C11.1829 28.7211 11.8361 29.3116 12.6071 29.7052C12.6428 29.7237 12.6921 29.7277 12.7083 29.7874ZM10.1583 16.375C10.1132 16.3421 10.0851 16.3186 10.054 16.2996C9.49327 15.9585 9.01481 15.5315 8.64749 14.9812C8.54469 14.8326 8.43241 14.6907 8.31134 14.5565C7.74342 13.9009 6.93785 13.7907 6.02836 14.1282C6.59899 14.5872 7.09282 15.114 7.55321 15.6711C7.97023 16.1762 8.49794 16.4753 9.14222 16.5616C9.49101 16.6082 9.83348 16.5752 10.1583 16.375Z" fill="url(#paint3_linear_302_2058)"/>
<path d="M13.2853 29.7883C14.9362 28.9574 15.8208 27.5925 16.204 25.8607C16.4344 24.8216 16.4181 23.7698 16.3372 22.7148C16.2153 21.1294 15.7653 19.6213 15.2918 18.1168C15.1476 17.6586 15.0333 17.1937 15.0324 16.7067C15.0324 16.2743 15.1363 15.8695 15.402 15.532C16.0752 14.6803 16.7656 13.8418 17.6005 13.1374C17.8147 12.9558 18.0487 12.7989 18.2981 12.6698C19.021 12.2961 19.7972 12.3503 20.3764 12.958C21.2525 13.8756 21.7937 14.9609 21.8159 16.2526C21.8317 17.168 21.4305 17.9387 20.8897 18.6472C20.5525 19.0969 20.1767 19.5162 19.7665 19.9005C18.5339 21.0404 17.8088 22.4604 17.3638 24.0535C17.1094 24.9571 16.8758 25.8702 16.5406 26.7503C16.2695 27.4656 15.913 28.1351 15.411 28.7175C14.8752 29.3374 14.1636 29.6288 13.3856 29.7933C13.3521 29.795 13.3185 29.7934 13.2853 29.7883ZM15.8972 16.3696C16.0116 16.4595 16.1482 16.5166 16.2925 16.535C17.0854 16.6683 17.7708 16.4265 18.313 15.8573C18.8701 15.2699 19.3761 14.6374 20.0208 14.1237C19.897 14.0532 19.7737 14.0387 19.6549 14.0112C18.8339 13.821 18.1377 14.0067 17.6118 14.6975C17.4948 14.8515 17.3746 15.0024 17.2635 15.1601C17.0477 15.4665 16.7838 15.7358 16.4818 15.9576C16.2921 16.0994 16.0964 16.2314 15.8972 16.3714V16.3696Z" fill="url(#paint4_linear_302_2058)"/>
<path d="M6.85924 21.3906C5.88559 20.4088 4.71812 19.7044 3.51586 19.0511C1.75833 18.0969 0.829869 16.6028 0.624296 14.6333C0.492369 13.3683 0.674899 12.1362 0.978062 10.9122C1.13439 10.2797 1.2383 9.64221 1.15878 8.98709C1.13218 8.76006 1.06451 8.53976 0.959085 8.33694C1.23017 8.43995 1.41089 8.61435 1.55457 8.82218C1.85999 9.26133 2.00321 9.76465 2.08951 10.2842C2.30186 11.5583 2.25442 12.8293 2.03258 14.0979C1.90653 14.8208 1.83107 15.5437 2.02625 16.2666C2.25216 17.1011 2.77128 17.7228 3.45396 18.2207C3.95095 18.5844 4.49945 18.8762 4.9761 19.2729C5.68786 19.8627 6.31955 20.5428 6.85517 21.2961C6.86789 21.3171 6.87878 21.3392 6.8877 21.3621L6.85924 21.3906Z" fill="url(#paint5_linear_302_2058)"/>
<path d="M19.1583 21.3634C19.6241 20.6473 20.2056 20.0329 20.8422 19.4686C21.2728 19.0872 21.7499 18.7696 22.2369 18.4642C22.9639 18.0088 23.5725 17.4395 23.901 16.6222C24.1612 15.9725 24.1838 15.2984 24.0885 14.6157C23.9796 13.8323 23.8309 13.0538 23.825 12.2586C23.8174 11.2646 23.8513 10.2743 24.2199 9.33182C24.3839 8.91209 24.6198 8.54432 25.0662 8.33784C24.6767 9.30697 24.9076 10.2494 25.1317 11.1842C25.3797 12.2234 25.5202 13.2693 25.4479 14.3351C25.3124 16.404 24.4174 18.0169 22.5613 19.0339C21.5366 19.5942 20.5341 20.1865 19.649 20.9568C19.4891 21.096 19.3395 21.2469 19.1854 21.3919L19.1583 21.3634Z" fill="url(#paint6_linear_302_2058)"/>
<path d="M12.9984 28.6403C12.6464 28.643 12.3031 28.6014 11.9778 28.4555C11.61 28.2901 11.3547 28.0195 11.2494 27.63C11.0601 26.927 11.1591 26.2868 11.6913 25.7478C12.0464 25.389 12.4689 25.1284 12.9017 24.8799C12.9283 24.864 12.9586 24.8557 12.9896 24.8557C13.0205 24.8557 13.0509 24.864 13.0775 24.8799C13.5862 25.1284 14.0561 25.4293 14.4121 25.8788C14.8829 26.4738 14.9122 27.1407 14.6651 27.8216C14.4875 28.3118 14.0561 28.4993 13.5753 28.5928C13.3849 28.6267 13.1918 28.6425 12.9984 28.6403Z" fill="url(#paint7_linear_302_2058)"/>
<path d="M9.38665 7.516C9.4032 8.10009 9.25794 8.67738 8.96692 9.18408C8.38363 10.2088 8.28062 11.2732 8.60547 12.4204C8.40894 12.3345 8.23815 12.2559 8.0633 12.1845C7.55321 11.9758 7.02415 11.8656 6.4743 11.9514C5.77128 12.0607 5.25713 12.4665 4.85457 13.0294C4.3124 13.7848 4.04131 14.6491 3.85156 15.5446C3.78469 15.8609 3.73996 16.1808 3.68032 16.5291C3.37671 15.2559 3.51451 14.0604 4.09915 12.9264C4.88032 11.4115 6.07942 10.3059 7.58619 9.54642C8.4374 9.11766 9.03198 8.50727 9.33062 7.60365C9.34705 7.57306 9.36578 7.54376 9.38665 7.516Z" fill="url(#paint8_linear_302_2058)"/>
<path d="M17.4446 12.4303C17.5193 12.1399 17.573 11.8446 17.6055 11.5466C17.6764 10.8205 17.5689 10.1311 17.221 9.48408C16.954 8.98709 16.7425 8.47022 16.6738 7.90275C16.6603 7.78889 16.6612 7.67323 16.6553 7.54944C16.7141 7.57293 16.7168 7.61269 16.7281 7.64612C17.0235 8.50456 17.5842 9.1032 18.3997 9.51435C20.0136 10.3276 21.2891 11.5064 22.0616 13.1686C22.5541 14.2271 22.649 15.3906 22.3594 16.5363C22.2903 16.0624 22.2284 15.6327 22.1208 15.2098C21.9071 14.3708 21.6238 13.5621 21.0735 12.8758C20.3872 12.0201 19.5067 11.7531 18.4531 12.0259C18.1092 12.114 17.7862 12.2582 17.4446 12.4303Z" fill="url(#paint9_linear_302_2058)"/>
<path d="M7.39779 23.7124C6.46842 22.6931 5.33439 21.9634 4.07656 21.4452C2.11797 20.6415 0.953212 19.1821 0.371736 17.1982C0.123694 16.3484 -0.0376012 15.157 0.00757956 14.5633C0.167068 16.0764 0.756224 17.4097 1.72445 18.5731C2.28875 19.2531 2.95291 19.8246 3.75442 20.1996C5.04749 20.8018 6.04101 21.7389 6.87821 22.8653C7.03815 23.0803 7.1868 23.304 7.33815 23.5249C7.3752 23.5787 7.43213 23.6302 7.39779 23.7124Z" fill="url(#paint10_linear_302_2058)"/>
<path d="M26.0344 14.6356C25.9585 16.699 25.4963 18.6219 23.9877 20.1521C23.4645 20.6835 22.8351 21.0558 22.1543 21.3535C20.8716 21.9147 19.6761 22.6113 18.7079 23.6473C18.6952 23.6636 18.6777 23.6754 18.658 23.6812C18.6382 23.6871 18.6171 23.6866 18.5976 23.6799C18.7928 23.3997 18.9749 23.1241 19.1719 22.8594C20.0055 21.738 20.9877 20.7919 22.2817 20.2073C22.6383 20.0406 22.9723 19.8293 23.2757 19.5784C24.8482 18.3103 25.7639 16.6737 26.0226 14.6686C26.0253 14.6572 26.0292 14.6461 26.0344 14.6356Z" fill="url(#paint11_linear_302_2058)"/>
<path d="M6.8877 21.3634C6.91662 21.3833 6.93875 21.4055 6.91933 21.4439L6.85833 21.391L6.8877 21.3634Z" fill="url(#paint12_linear_302_2058)"/>
<path d="M19.1868 21.3906L19.1258 21.443C19.1064 21.4041 19.1285 21.3824 19.1574 21.363L19.1868 21.3906Z" fill="url(#paint13_linear_302_2058)"/>
<path d="M19.1258 21.443C19.1208 21.4719 19.1041 21.4836 19.0757 21.4728C19.0708 21.4693 19.0674 21.4642 19.0662 21.4583C19.0824 21.4398 19.101 21.4262 19.1267 21.4439L19.1258 21.443Z" fill="url(#paint14_linear_302_2058)"/>
<path d="M6.91933 21.4439L6.94731 21.4476L6.9375 21.4705L6.92116 21.443L6.91933 21.4439Z" fill="url(#paint15_linear_302_2058)"/>
<path d="M47.8493 11.556C46.5093 10.976 45.4693 10.516 44.0493 10.516C41.1693 10.516 39.3693 12.436 39.3693 15.096C39.3693 17.736 41.1093 19.676 43.8893 19.676C44.4293 19.676 44.9293 19.596 45.4293 19.496V15.036H48.1893V21.396C47.0493 21.856 45.4893 22.316 43.8493 22.316C39.6093 22.316 36.5493 19.296 36.5493 15.096C36.5493 10.896 39.6093 7.87597 43.9493 7.87597C45.4893 7.87597 46.7893 8.23597 47.8493 8.67597V11.556Z" fill="white"/>
<path d="M55.731 10.656C59.171 10.656 61.591 13.196 61.591 16.496C61.591 19.796 59.171 22.336 55.731 22.336C52.311 22.336 49.891 19.796 49.891 16.496C49.891 13.196 52.311 10.656 55.731 10.656ZM52.631 16.496C52.631 18.336 53.831 19.776 55.731 19.776C57.651 19.776 58.851 18.336 58.851 16.496C58.851 14.656 57.651 13.216 55.731 13.216C53.831 13.216 52.631 14.656 52.631 16.496Z" fill="white"/>
<path d="M63.2463 22.096V7.09597H65.9663V22.096H63.2463Z" fill="white"/>
<path d="M76.6743 16.496C76.6743 14.656 75.4943 13.136 73.5143 13.136C71.5743 13.136 70.3943 14.656 70.3943 16.496C70.3943 18.336 71.5743 19.856 73.5143 19.856C75.4943 19.856 76.6743 18.336 76.6743 16.496ZM67.6543 16.496C67.6543 12.916 69.9343 10.656 72.8143 10.656C74.4943 10.656 75.8343 11.416 76.5943 12.896V7.09597H79.3143V22.096H76.6743V20.176C75.8343 21.596 74.4743 22.336 72.8143 22.336C69.9343 22.336 67.6543 20.076 67.6543 16.496Z" fill="white"/>
<path d="M88.8816 8.09597V10.696H84.1416V13.896H88.6416V16.396H84.1416V22.096H81.4016V8.09597H88.8816Z" fill="white"/>
<path d="M95.8474 10.656C99.2874 10.656 101.707 13.196 101.707 16.496C101.707 19.796 99.2874 22.336 95.8474 22.336C92.4274 22.336 90.0074 19.796 90.0074 16.496C90.0074 13.196 92.4274 10.656 95.8474 10.656ZM92.7474 16.496C92.7474 18.336 93.9474 19.776 95.8474 19.776C97.7674 19.776 98.9674 18.336 98.9674 16.496C98.9674 14.656 97.7674 13.216 95.8474 13.216C93.9474 13.216 92.7474 14.656 92.7474 16.496Z" fill="white"/>
<path d="M102.042 22.096L105.202 16.496L102.042 10.896H105.262L107.362 15.016L109.402 10.896H112.542L109.382 16.496L112.542 22.096H109.342L107.302 17.976L105.202 22.096H102.042Z" fill="white"/>
<defs>
<linearGradient id="paint0_linear_302_2058" x1="56.271" y1="0.205994" x2="56.271" y2="29.794" gradientUnits="userSpaceOnUse">
<stop stop-color="#ECA72F"/>
<stop offset="1" stop-color="#EDCA4F"/>
</linearGradient>
<linearGradient id="paint1_linear_302_2058" x1="56.271" y1="0.205994" x2="56.271" y2="29.794" gradientUnits="userSpaceOnUse">
<stop stop-color="#ECA72F"/>
<stop offset="1" stop-color="#EDCA4F"/>
</linearGradient>
<linearGradient id="paint2_linear_302_2058" x1="56.271" y1="0.205994" x2="56.271" y2="29.794" gradientUnits="userSpaceOnUse">
<stop stop-color="#ECA72F"/>
<stop offset="1" stop-color="#EDCA4F"/>
</linearGradient>
<linearGradient id="paint3_linear_302_2058" x1="56.271" y1="0.205994" x2="56.271" y2="29.794" gradientUnits="userSpaceOnUse">
<stop stop-color="#ECA72F"/>
<stop offset="1" stop-color="#EDCA4F"/>
</linearGradient>
<linearGradient id="paint4_linear_302_2058" x1="56.271" y1="0.205994" x2="56.271" y2="29.794" gradientUnits="userSpaceOnUse">
<stop stop-color="#ECA72F"/>
<stop offset="1" stop-color="#EDCA4F"/>
</linearGradient>
<linearGradient id="paint5_linear_302_2058" x1="56.271" y1="0.205994" x2="56.271" y2="29.794" gradientUnits="userSpaceOnUse">
<stop stop-color="#ECA72F"/>
<stop offset="1" stop-color="#EDCA4F"/>
</linearGradient>
<linearGradient id="paint6_linear_302_2058" x1="56.271" y1="0.205994" x2="56.271" y2="29.794" gradientUnits="userSpaceOnUse">
<stop stop-color="#ECA72F"/>
<stop offset="1" stop-color="#EDCA4F"/>
</linearGradient>
<linearGradient id="paint7_linear_302_2058" x1="56.271" y1="0.205994" x2="56.271" y2="29.794" gradientUnits="userSpaceOnUse">
<stop stop-color="#ECA72F"/>
<stop offset="1" stop-color="#EDCA4F"/>
</linearGradient>
<linearGradient id="paint8_linear_302_2058" x1="56.271" y1="0.205994" x2="56.271" y2="29.794" gradientUnits="userSpaceOnUse">
<stop stop-color="#ECA72F"/>
<stop offset="1" stop-color="#EDCA4F"/>
</linearGradient>
<linearGradient id="paint9_linear_302_2058" x1="56.271" y1="0.205994" x2="56.271" y2="29.794" gradientUnits="userSpaceOnUse">
<stop stop-color="#ECA72F"/>
<stop offset="1" stop-color="#EDCA4F"/>
</linearGradient>
<linearGradient id="paint10_linear_302_2058" x1="56.271" y1="0.205994" x2="56.271" y2="29.794" gradientUnits="userSpaceOnUse">
<stop stop-color="#ECA72F"/>
<stop offset="1" stop-color="#EDCA4F"/>
</linearGradient>
<linearGradient id="paint11_linear_302_2058" x1="56.271" y1="0.205994" x2="56.271" y2="29.794" gradientUnits="userSpaceOnUse">
<stop stop-color="#ECA72F"/>
<stop offset="1" stop-color="#EDCA4F"/>
</linearGradient>
<linearGradient id="paint12_linear_302_2058" x1="56.271" y1="0.205994" x2="56.271" y2="29.794" gradientUnits="userSpaceOnUse">
<stop stop-color="#ECA72F"/>
<stop offset="1" stop-color="#EDCA4F"/>
</linearGradient>
<linearGradient id="paint13_linear_302_2058" x1="56.271" y1="0.205994" x2="56.271" y2="29.794" gradientUnits="userSpaceOnUse">
<stop stop-color="#ECA72F"/>
<stop offset="1" stop-color="#EDCA4F"/>
</linearGradient>
<linearGradient id="paint14_linear_302_2058" x1="56.271" y1="0.205994" x2="56.271" y2="29.794" gradientUnits="userSpaceOnUse">
<stop stop-color="#ECA72F"/>
<stop offset="1" stop-color="#EDCA4F"/>
</linearGradient>
<linearGradient id="paint15_linear_302_2058" x1="56.271" y1="0.205994" x2="56.271" y2="29.794" gradientUnits="userSpaceOnUse">
<stop stop-color="#ECA72F"/>
<stop offset="1" stop-color="#EDCA4F"/>
</linearGradient>
</defs>
</svg>
